# xmcd
#
# Track frame offsets:
#	150
#	14951
#	28283
#	41190
#	56405
#	66967
#	80154
#	90375
#	102701
#	115522
#	127581
#	137521
#	151281
#	163830
#
# Disc length: 2389 seconds
#
# Revision: 2
# Processed by: cddbd v1.5.2PL0 Copyright (c) Steve Scherf et al.
# Submitted via: EZCDAudioConverter 7.1.8.1
#
DISCID=be09530e
DTITLE=TRIO PARADA DURA - BEBENDO E CHORANDO [CD 092740859-2) CONTINENTAL
DYEAR=2001
DGENRE=Country
TTITLE0=NÃO ACEITO SEU ADEUS (BY GILMAR SINISTRO)
TTITLE1=BEBENDO E CHORANDO (BY GILMAR SINISTRO)
TTITLE2=FAZ ISSO NÃO, PAIXÃO (BY GILMAR SINISTRO)
TTITLE3=AMOR DE CAMA (BY GILMAR SINISTRO)
TTITLE4=TROVÃO AZUL (BY GILMAR SINISTRO)
TTITLE5=MINHA VIDA EM SUAS MÃOS (BY GILMAR SINISTRO)
TTITLE6=TÔ DOIDÃO (BY GILMAR SINISTRO)
TTITLE7=PALAVRA DE HONRA (BY GILMAR SINISTRO)
TTITLE8=VESTIDO BRANCO (BY GILMAR SINISTRO)
TTITLE9=O VALENTÃO (BY GILMAR SINISTRO)
TTITLE10=GIGANTE ILUMINADO (BY GILMAR SINISTRO)
TTITLE11=ME GUARDANDO PRA VOCÊ (BY GILMAR SINISTRO)
TTITLE12=ULTIMO PEDIDO (BY GILMAR SINISTRO)
TTITLE13=POR TE QUERER (BY GILMAR SINISTRO)
EXTD=
EXTT0=
EXTT1=
EXTT2=
EXTT3=
EXTT4=
EXTT5=
EXTT6=
EXTT7=
EXTT8=
EXTT9=
EXTT10=
EXTT11=
EXTT12=
EXTT13=
PLAYORDER=
